# xmcd
#
# Track frame offsets: 
#        150
#        14065
#        26461
#        41706
#        54580
#        67307
#        78200
#        93330
#        105952
#        120756
#        132297
#        145796
#        159203
#        172962
#        187047
#        199963
#        212542
#        226056
#
# Disc length: 3190 seconds
#
# Revision: 0
# Processed by: cddbd v1.5.1PL2 Copyright (c) Steve Scherf et al.
# Submitted via: ExactAudioCopy v0.95b3
#
DISCID=e80c7412
DTITLE=Memphis Minnie - Moonshine
DYEAR=1996
DGENRE=Blues
TTITLE0=Hot Stuff
TTITLE1=I Hate To See The Sun Go Down
TTITLE2=Memphis Minnie - Jitis
TTITLE3=Frankie
TTITLE4=She Put Me Outdoors
TTITLE5=I Don't Want That Junk Outta You
TTITLE6=Biting Bug Blues
TTITLE7=Moonshine
TTITLE8=Chickasaw Train Blues
TTITLE9=Down By The Riverside
TTITLE10=I Called You This Morning
TTITLE11=Man You Won't Give Me No Money
TTITLE12=Keep On Sailing
TTITLE13=It's Hard To Be Mistreated
TTITLE14=New Bumble Bee
TTITLE15=My And My Chauffeur Blues
TTITLE16=Good Morning
TTITLE17=Ice Man
EXTD=Columbia River Entertainment Group
EXTT0=
EXTT1=
EXTT2=
EXTT3=
EXTT4=
EXTT5=
EXTT6=
EXTT7=
EXTT8=
EXTT9=
EXTT10=
EXTT11=
EXTT12=
EXTT13=
EXTT14=
EXTT15=
EXTT16=
EXTT17=
PLAYORDER=
